<svg width="500" height="500" viewBox="0 0 500 500" fill="none" xmlns="http://www.w3.org/2000/svg">
<g clip-path="url(#clip0_6_14)">
<circle cx="250" cy="250" r="249" fill="#222831"/>
<path d="M390.906 319.922C390.906 331.51 388.693 342.448 384.266 352.734C379.969 362.891 373.979 371.81 366.297 379.492C358.745 387.044 349.826 393.034 339.539 397.461C329.383 401.758 318.51 403.906 306.922 403.906C296.505 403.906 286.479 402.083 276.844 398.438C267.339 394.792 258.745 389.453 251.062 382.422C243.38 389.453 234.721 394.792 225.086 398.438C215.451 402.083 205.424 403.906 195.008 403.906C183.419 403.906 172.482 401.758 162.195 397.461C152.039 393.034 143.12 387.044 135.438 379.492C127.885 371.81 121.896 362.891 117.469 352.734C113.172 342.448 111.023 331.51 111.023 319.922V119.922H167.078V319.922C167.078 323.828 167.794 327.539 169.227 331.055C170.659 334.44 172.612 337.435 175.086 340.039C177.69 342.513 180.685 344.466 184.07 345.898C187.456 347.331 191.102 348.047 195.008 348.047C198.914 348.047 202.56 347.331 205.945 345.898C209.331 344.466 212.26 342.513 214.734 340.039C217.339 337.435 219.357 334.44 220.789 331.055C222.221 327.539 222.938 323.828 222.938 319.922V119.922H278.992V319.922C278.992 323.828 279.708 327.539 281.141 331.055C282.573 334.44 284.526 337.435 287 340.039C289.604 342.513 292.599 344.466 295.984 345.898C299.37 347.331 303.016 348.047 306.922 348.047C310.828 348.047 314.474 347.331 317.859 345.898C321.245 344.466 324.174 342.513 326.648 340.039C329.253 337.435 331.271 334.44 332.703 331.055C334.266 327.539 335.047 323.828 335.047 319.922V119.922H390.906V319.922Z" fill="#00ADB5"/>
<path d="M384.266 352.734L380.591 351.153L380.587 351.164L380.582 351.176L384.266 352.734ZM366.297 379.492L369.125 382.321L366.297 379.492ZM339.539 397.461L341.098 401.145L341.109 401.14L341.12 401.135L339.539 397.461ZM276.844 398.438L275.411 402.172L275.42 402.175L275.428 402.179L276.844 398.438ZM251.062 382.422L253.763 379.471L251.062 376.999L248.362 379.471L251.062 382.422ZM162.195 397.461L160.597 401.128L160.625 401.14L160.654 401.152L162.195 397.461ZM135.438 379.492L132.585 382.296L132.609 382.321L132.633 382.345L135.438 379.492ZM117.469 352.734L113.778 354.276L113.79 354.305L113.802 354.333L117.469 352.734ZM111.023 119.922V115.922H107.023V119.922H111.023ZM167.078 119.922H171.078V115.922H167.078V119.922ZM169.227 331.055L165.522 332.564L165.532 332.589L165.543 332.613L169.227 331.055ZM175.086 340.039L172.186 342.794L172.257 342.868L172.331 342.939L175.086 340.039ZM184.07 345.898L182.512 349.582L184.07 345.898ZM214.734 340.039L211.906 337.211L214.734 340.039ZM220.789 331.055L224.473 332.613L224.483 332.589L224.493 332.564L220.789 331.055ZM222.938 119.922V115.922H218.938V119.922H222.938ZM278.992 119.922H282.992V115.922H278.992V119.922ZM281.141 331.055L277.436 332.564L277.446 332.589L277.457 332.613L281.141 331.055ZM287 340.039L284.1 342.794L284.171 342.868L284.245 342.939L287 340.039ZM326.648 340.039L329.477 342.867L326.648 340.039ZM332.703 331.055L329.048 329.43L329.033 329.463L329.019 329.496L332.703 331.055ZM335.047 119.922V115.922H331.047V119.922H335.047ZM390.906 119.922H394.906V115.922H390.906V119.922ZM386.906 319.922C386.906 330.986 384.796 341.384 380.591 351.153L387.94 354.316C392.589 343.512 394.906 332.035 394.906 319.922H386.906ZM380.582 351.176C376.483 360.865 370.781 369.351 363.468 376.664L369.125 382.321C377.177 374.268 383.455 364.916 387.949 354.293L380.582 351.176ZM363.468 376.664C356.292 383.84 347.802 389.55 337.958 393.787L341.12 401.135C351.849 396.518 361.198 390.248 369.125 382.321L363.468 376.664ZM337.981 393.777C328.342 397.855 318.003 399.906 306.922 399.906V407.906C319.018 407.906 330.423 405.661 341.098 401.145L337.981 393.777ZM306.922 399.906C296.983 399.906 287.437 398.169 278.259 394.696L275.428 402.179C285.521 405.998 296.027 407.906 306.922 407.906V399.906ZM278.276 394.703C269.25 391.241 261.084 386.172 253.763 379.471L248.362 385.373C256.405 392.734 265.427 398.343 275.411 402.172L278.276 394.703ZM248.362 379.471C241.05 386.164 232.826 391.232 223.67 394.696L226.502 402.179C236.617 398.351 245.711 392.743 253.763 385.373L248.362 379.471ZM223.67 394.696C214.492 398.169 204.946 399.906 195.008 399.906V407.906C205.903 407.906 216.409 405.998 226.502 402.179L223.67 394.696ZM195.008 399.906C183.927 399.906 173.516 397.855 163.737 393.77L160.654 401.152C171.448 405.661 182.911 407.906 195.008 407.906V399.906ZM163.794 393.794C154.073 389.557 145.565 383.839 138.242 376.64L132.633 382.345C140.674 390.249 150.005 396.511 160.597 401.128L163.794 393.794ZM138.29 376.688C131.091 369.364 125.373 360.857 121.136 351.136L113.802 354.333C118.419 364.924 124.68 374.255 132.585 382.296L138.29 376.688ZM121.16 351.193C117.075 341.414 115.023 331.002 115.023 319.922H107.023C107.023 332.018 109.269 343.482 113.778 354.276L121.16 351.193ZM115.023 319.922V119.922H107.023V319.922H115.023ZM111.023 123.922H167.078V115.922H111.023V123.922ZM163.078 119.922V319.922H171.078V119.922H163.078ZM163.078 319.922C163.078 324.33 163.889 328.555 165.522 332.564L172.931 329.545C171.7 326.523 171.078 323.326 171.078 319.922H163.078ZM165.543 332.613C167.158 336.431 169.373 339.833 172.186 342.794L177.986 337.284C175.851 335.037 174.16 332.449 172.91 329.496L165.543 332.613ZM172.331 342.939C175.292 345.752 178.694 347.967 182.512 349.582L185.629 342.215C182.676 340.965 180.088 339.274 177.841 337.139L172.331 342.939ZM182.512 349.582C186.421 351.236 190.6 352.047 195.008 352.047V344.047C191.603 344.047 188.491 343.425 185.629 342.215L182.512 349.582ZM195.008 352.047C199.415 352.047 203.595 351.236 207.504 349.582L204.387 342.215C201.525 343.425 198.413 344.047 195.008 344.047V352.047ZM207.504 349.582C211.339 347.96 214.706 345.724 217.563 342.867L211.906 337.211C209.815 339.302 207.322 340.973 204.387 342.215L207.504 349.582ZM217.563 342.867C220.531 339.9 222.84 336.474 224.473 332.613L217.105 329.496C215.874 332.406 214.147 334.97 211.906 337.211L217.563 342.867ZM224.493 332.564C226.127 328.555 226.938 324.33 226.938 319.922H218.938C218.938 323.326 218.316 326.523 217.085 329.545L224.493 332.564ZM226.938 319.922V119.922H218.938V319.922H226.938ZM222.938 123.922H278.992V115.922H222.938V123.922ZM274.992 119.922V319.922H282.992V119.922H274.992ZM274.992 319.922C274.992 324.33 275.803 328.555 277.436 332.564L284.845 329.545C283.614 326.523 282.992 323.326 282.992 319.922H274.992ZM277.457 332.613C279.072 336.431 281.287 339.833 284.1 342.794L289.9 337.284C287.765 335.037 286.074 332.449 284.824 329.496L277.457 332.613ZM284.245 342.939C287.206 345.752 290.608 347.967 294.426 349.582L297.543 342.215C294.59 340.965 292.002 339.274 289.755 337.139L284.245 342.939ZM294.426 349.582C298.335 351.236 302.514 352.047 306.922 352.047V344.047C303.517 344.047 300.405 343.425 297.543 342.215L294.426 349.582ZM306.922 352.047C311.33 352.047 315.509 351.236 319.418 349.582L316.301 342.215C313.439 343.425 310.327 344.047 306.922 344.047V352.047ZM319.418 349.582C323.253 347.96 326.62 345.724 329.477 342.867L323.82 337.211C321.729 339.302 319.236 340.973 316.301 342.215L319.418 349.582ZM329.477 342.867C332.445 339.9 334.754 336.474 336.387 332.613L329.019 329.496C327.788 332.406 326.061 334.97 323.82 337.211L329.477 342.867ZM336.358 332.679C338.152 328.644 339.047 324.379 339.047 319.922H331.047C331.047 323.277 330.38 326.434 329.048 329.43L336.358 332.679ZM339.047 319.922V119.922H331.047V319.922H339.047ZM335.047 123.922H390.906V115.922H335.047V123.922ZM386.906 119.922V319.922H394.906V119.922H386.906Z" fill="#08D9D6"/>
</g>
<defs>
<clipPath id="clip0_6_14">
<rect width="500" height="500" fill="white"/>
</clipPath>
</defs>
</svg>
