<svg width="485" height="162" viewBox="0 0 485 162" fill="none" xmlns="http://www.w3.org/2000/svg">
<path d="M105.75 101.375C105.75 105.083 105.042 108.583 103.625 111.875C102.25 115.125 100.333 117.979 97.875 120.438C95.4583 122.854 92.6042 124.771 89.3125 126.188C86.0625 127.562 82.5833 128.25 78.875 128.25C75.5417 128.25 72.3333 127.667 69.25 126.5C66.2083 125.333 63.4583 123.625 61 121.375C58.5417 123.625 55.7708 125.333 52.6875 126.5C49.6042 127.667 46.3958 128.25 43.0625 128.25C39.3542 128.25 35.8542 127.562 32.5625 126.188C29.3125 124.771 26.4583 122.854 24 120.438C21.5833 117.979 19.6667 115.125 18.25 111.875C16.875 108.583 16.1875 105.083 16.1875 101.375V37.375H34.125V101.375C34.125 102.625 34.3542 103.812 34.8125 104.938C35.2708 106.021 35.8958 106.979 36.6875 107.812C37.5208 108.604 38.4792 109.229 39.5625 109.688C40.6458 110.146 41.8125 110.375 43.0625 110.375C44.3125 110.375 45.4792 110.146 46.5625 109.688C47.6458 109.229 48.5833 108.604 49.375 107.812C50.2083 106.979 50.8542 106.021 51.3125 104.938C51.7708 103.812 52 102.625 52 101.375V37.375H69.9375V101.375C69.9375 102.625 70.1667 103.812 70.625 104.938C71.0833 106.021 71.7083 106.979 72.5 107.812C73.3333 108.604 74.2917 109.229 75.375 109.688C76.4583 110.146 77.625 110.375 78.875 110.375C80.125 110.375 81.2917 110.146 82.375 109.688C83.4583 109.229 84.3958 108.604 85.1875 107.812C86.0208 106.979 86.6667 106.021 87.125 104.938C87.625 103.812 87.875 102.625 87.875 101.375V37.375H105.75V101.375Z" fill="#08D9D6"/>
<path d="M103.625 111.875L100.869 110.689L100.866 110.698L100.862 110.706L103.625 111.875ZM97.875 120.438L99.9963 122.559L97.875 120.438ZM89.3125 126.188L90.4814 128.95L90.49 128.947L90.4985 128.943L89.3125 126.188ZM69.25 126.5L68.1756 129.301L68.1883 129.306L69.25 126.5ZM61 121.375L63.0255 119.162L61 117.308L58.9745 119.162L61 121.375ZM32.5625 126.188L31.3637 128.938L31.3849 128.947L31.4062 128.956L32.5625 126.188ZM24 120.438L21.8606 122.541L21.8786 122.559L21.8969 122.577L24 120.438ZM18.25 111.875L15.4818 113.031L15.4907 113.053L15.4999 113.074L18.25 111.875ZM16.1875 37.375V34.375H13.1875V37.375H16.1875ZM34.125 37.375H37.125V34.375H34.125V37.375ZM34.8125 104.938L32.0342 106.069L32.0418 106.088L32.0496 106.106L34.8125 104.938ZM36.6875 107.812L34.5125 109.879L34.5655 109.935L34.6213 109.987L36.6875 107.812ZM39.5625 109.688L38.3936 112.45L39.5625 109.688ZM49.375 107.812L47.2537 105.691L49.375 107.812ZM51.3125 104.938L54.0754 106.106L54.0832 106.088L54.0908 106.069L51.3125 104.938ZM52 37.375V34.375H49V37.375H52ZM69.9375 37.375H72.9375V34.375H69.9375V37.375ZM70.625 104.938L67.8467 106.069L67.8543 106.088L67.8621 106.106L70.625 104.938ZM72.5 107.812L70.325 109.879L70.378 109.935L70.4338 109.987L72.5 107.812ZM85.1875 107.812L87.3088 109.934L85.1875 107.812ZM87.125 104.938L84.3836 103.719L84.3726 103.744L84.3621 103.769L87.125 104.938ZM87.875 37.375V34.375H84.875V37.375H87.875ZM105.75 37.375H108.75V34.375H105.75V37.375ZM102.75 101.375C102.75 104.69 102.119 107.785 100.869 110.689L106.381 113.061C107.964 109.382 108.75 105.477 108.75 101.375H102.75ZM100.862 110.706C99.6353 113.606 97.9346 116.135 95.7537 118.316L99.9963 122.559C102.732 119.823 104.865 116.644 106.388 113.044L100.862 110.706ZM95.7537 118.316C93.6187 120.451 91.0862 122.158 88.1265 123.432L90.4985 128.943C94.1221 127.384 97.2979 125.257 99.9963 122.559L95.7537 118.316ZM88.1436 123.425C85.2821 124.635 82.2025 125.25 78.875 125.25V131.25C82.9641 131.25 86.8429 130.49 90.4814 128.95L88.1436 123.425ZM78.875 125.25C75.9003 125.25 73.0519 124.731 70.3117 123.694L68.1883 129.306C71.6147 130.602 75.1831 131.25 78.875 131.25V125.25ZM70.3244 123.699C67.6419 122.67 65.2129 121.164 63.0255 119.162L58.9745 123.588C61.7037 126.086 64.7747 127.997 68.1756 129.301L70.3244 123.699ZM58.9745 119.162C56.7938 121.158 54.3492 122.664 51.6258 123.694L53.7492 129.306C57.1924 128.003 60.2895 126.092 63.0255 123.588L58.9745 119.162ZM51.6258 123.694C48.8856 124.731 46.0372 125.25 43.0625 125.25V131.25C46.7544 131.25 50.3228 130.602 53.7492 129.306L51.6258 123.694ZM43.0625 125.25C39.7351 125.25 36.6297 124.635 33.7188 123.419L31.4062 128.956C35.0786 130.49 38.9732 131.25 43.0625 131.25V125.25ZM33.7613 123.437C30.8378 122.163 28.2924 120.45 26.1031 118.298L21.8969 122.577C24.6243 125.258 27.7872 127.379 31.3637 128.938L33.7613 123.437ZM26.1394 118.334C23.9872 116.145 22.2744 113.6 21.0001 110.676L15.4999 113.074C17.0589 116.65 19.1795 119.813 21.8606 122.541L26.1394 118.334ZM21.0182 110.719C19.8023 107.808 19.1875 104.702 19.1875 101.375H13.1875C13.1875 105.464 13.9477 109.359 15.4818 113.031L21.0182 110.719ZM19.1875 101.375V37.375H13.1875V101.375H19.1875ZM16.1875 40.375H34.125V34.375H16.1875V40.375ZM31.125 37.375V101.375H37.125V37.375H31.125ZM31.125 101.375C31.125 103.002 31.4252 104.574 32.0342 106.069L37.5908 103.806C37.2831 103.051 37.125 102.248 37.125 101.375H31.125ZM32.0496 106.106C32.645 107.514 33.4667 108.778 34.5125 109.879L38.8625 105.746C38.325 105.18 37.8966 104.528 37.5754 103.769L32.0496 106.106ZM34.6213 109.987C35.7221 111.033 36.9862 111.855 38.3936 112.45L40.7314 106.925C39.9722 106.603 39.3196 106.175 38.7537 105.638L34.6213 109.987ZM38.3936 112.45C39.8696 113.075 41.4364 113.375 43.0625 113.375V107.375C42.1886 107.375 41.4221 107.217 40.7314 106.925L38.3936 112.45ZM43.0625 113.375C44.6886 113.375 46.2554 113.075 47.7314 112.45L45.3936 106.925C44.7029 107.217 43.9364 107.375 43.0625 107.375V113.375ZM47.7314 112.45C49.1523 111.849 50.4178 111.012 51.4963 109.934L47.2537 105.691C46.7489 106.196 46.1394 106.609 45.3936 106.925L47.7314 112.45ZM51.4963 109.934C52.6023 108.828 53.4662 107.546 54.0754 106.106L48.5496 103.769C48.2421 104.495 47.8143 105.131 47.2537 105.691L51.4963 109.934ZM54.0908 106.069C54.6998 104.574 55 103.002 55 101.375H49C49 102.248 48.8419 103.051 48.5342 103.806L54.0908 106.069ZM55 101.375V37.375H49V101.375H55ZM52 40.375H69.9375V34.375H52V40.375ZM66.9375 37.375V101.375H72.9375V37.375H66.9375ZM66.9375 101.375C66.9375 103.002 67.2377 104.574 67.8467 106.069L73.4033 103.806C73.0956 103.051 72.9375 102.248 72.9375 101.375H66.9375ZM67.8621 106.106C68.4575 107.514 69.2792 108.778 70.325 109.879L74.675 105.746C74.1375 105.18 73.7091 104.528 73.3879 103.769L67.8621 106.106ZM70.4338 109.987C71.5346 111.033 72.7987 111.855 74.2061 112.45L76.5439 106.925C75.7847 106.603 75.1321 106.175 74.5662 105.638L70.4338 109.987ZM74.2061 112.45C75.6821 113.075 77.2489 113.375 78.875 113.375V107.375C78.0011 107.375 77.2346 107.217 76.5439 106.925L74.2061 112.45ZM78.875 113.375C80.5011 113.375 82.0679 113.075 83.5439 112.45L81.2061 106.925C80.5154 107.217 79.7489 107.375 78.875 107.375V113.375ZM83.5439 112.45C84.9648 111.849 86.2303 111.012 87.3088 109.934L83.0662 105.691C82.5614 106.196 81.9519 106.609 81.2061 106.925L83.5439 112.45ZM87.3088 109.934C88.4148 108.828 89.2787 107.546 89.8879 106.106L84.3621 103.769C84.0546 104.495 83.6268 105.131 83.0662 105.691L87.3088 109.934ZM89.8664 106.156C90.5396 104.641 90.875 103.038 90.875 101.375H84.875C84.875 102.212 84.7104 102.984 84.3836 103.719L89.8664 106.156ZM90.875 101.375V37.375H84.875V101.375H90.875ZM87.875 40.375H105.75V34.375H87.875V40.375ZM102.75 37.375V101.375H108.75V37.375H102.75Z" fill="#00ADB5" fill-opacity="0.8"/>
<path d="M143.688 110.188C144.354 110.396 145.021 110.542 145.688 110.625C146.354 110.667 147.021 110.688 147.688 110.688C149.354 110.688 150.958 110.458 152.5 110C154.042 109.542 155.479 108.896 156.812 108.062C158.188 107.188 159.396 106.146 160.438 104.938C161.521 103.688 162.396 102.312 163.062 100.812L175.562 113.375C173.979 115.625 172.146 117.646 170.062 119.438C168.021 121.229 165.792 122.75 163.375 124C161 125.25 158.479 126.188 155.812 126.812C153.188 127.479 150.479 127.812 147.688 127.812C142.979 127.812 138.542 126.938 134.375 125.188C130.25 123.438 126.625 121 123.5 117.875C120.417 114.75 117.979 111.042 116.188 106.75C114.396 102.417 113.5 97.6667 113.5 92.5C113.5 87.2083 114.396 82.375 116.188 78C117.979 73.625 120.417 69.8958 123.5 66.8125C126.625 63.7292 130.25 61.3333 134.375 59.625C138.542 57.9167 142.979 57.0625 147.688 57.0625C150.479 57.0625 153.208 57.3958 155.875 58.0625C158.542 58.7292 161.062 59.6875 163.438 60.9375C165.854 62.1875 168.104 63.7292 170.188 65.5625C172.271 67.3542 174.104 69.375 175.688 71.625L143.688 110.188ZM152.438 75C151.646 74.7083 150.854 74.5208 150.062 74.4375C149.312 74.3542 148.521 74.3125 147.688 74.3125C145.354 74.3125 143.146 74.75 141.062 75.625C139.021 76.4583 137.229 77.6667 135.688 79.25C134.188 80.8333 133 82.75 132.125 85C131.25 87.2083 130.812 89.7083 130.812 92.5C130.812 93.125 130.833 93.8333 130.875 94.625C130.958 95.4167 131.062 96.2292 131.188 97.0625C131.354 97.8542 131.542 98.625 131.75 99.375C131.958 100.125 132.229 100.792 132.562 101.375L152.438 75Z" fill="#EEEEEE"/>
<path d="M251.312 92.5C251.312 97.75 250.417 102.542 248.625 106.875C246.833 111.208 244.396 114.938 241.312 118.062C238.229 121.146 234.604 123.542 230.438 125.25C226.312 126.958 221.875 127.812 217.125 127.812C212.417 127.812 207.979 126.938 203.812 125.188C199.688 123.438 196.062 121 192.938 117.875C189.854 114.75 187.417 111.042 185.625 106.75C183.833 102.417 182.938 97.6667 182.938 92.5V33H200.062V64.25C200.979 63.0833 202.083 62.0417 203.375 61.125C204.708 60.2083 206.125 59.4583 207.625 58.875C209.167 58.2917 210.75 57.8542 212.375 57.5625C214 57.2292 215.583 57.0625 217.125 57.0625C221.875 57.0625 226.312 57.9583 230.438 59.75C234.604 61.5 238.229 63.9583 241.312 67.125C244.396 70.2917 246.833 74.0417 248.625 78.375C250.417 82.6667 251.312 87.375 251.312 92.5ZM234.125 92.5C234.125 89.9167 233.667 87.5208 232.75 85.3125C231.875 83.0625 230.667 81.125 229.125 79.5C227.583 77.875 225.771 76.6042 223.688 75.6875C221.646 74.7708 219.458 74.3125 217.125 74.3125C214.792 74.3125 212.583 74.8333 210.5 75.875C208.458 76.875 206.667 78.2292 205.125 79.9375C203.583 81.6042 202.375 83.5417 201.5 85.75C200.625 87.9167 200.188 90.1667 200.188 92.5C200.188 95.0833 200.625 97.4792 201.5 99.6875C202.375 101.896 203.583 103.812 205.125 105.438C206.667 107.062 208.458 108.354 210.5 109.312C212.583 110.229 214.792 110.688 217.125 110.688C219.458 110.688 221.646 110.229 223.688 109.312C225.771 108.354 227.583 107.062 229.125 105.438C230.667 103.812 231.875 101.896 232.75 99.6875C233.667 97.4792 234.125 95.0833 234.125 92.5Z" fill="#EEEEEE"/>
<path d="M329.688 93.9375C329.688 98.9375 328.792 103.604 327 107.938C325.208 112.229 322.771 115.958 319.688 119.125C316.604 122.25 312.979 124.729 308.812 126.562C304.688 128.354 300.25 129.25 295.5 129.25C290.792 129.25 286.354 128.354 282.188 126.562C278.062 124.729 274.438 122.25 271.312 119.125C268.229 115.958 265.792 112.229 264 107.938C262.208 103.604 261.312 98.9375 261.312 93.9375C261.312 88.8542 262.208 84.1458 264 79.8125C265.792 75.4792 268.229 71.75 271.312 68.625C274.438 65.4583 278.062 62.9792 282.188 61.1875C286.354 59.3958 290.792 58.5 295.5 58.5C300.25 58.5 304.688 59.3542 308.812 61.0625C312.979 62.7292 316.604 65.125 319.688 68.25C322.771 71.3333 325.208 75.0625 327 79.4375C328.792 83.7708 329.688 88.6042 329.688 93.9375ZM312.5 93.9375C312.5 91.1875 312.042 88.7083 311.125 86.5C310.25 84.25 309.042 82.3333 307.5 80.75C305.958 79.125 304.146 77.8958 302.062 77.0625C300.021 76.1875 297.833 75.75 295.5 75.75C293.167 75.75 290.958 76.1875 288.875 77.0625C286.833 77.8958 285.042 79.125 283.5 80.75C282 82.3333 280.812 84.25 279.938 86.5C279.062 88.7083 278.625 91.1875 278.625 93.9375C278.625 96.5208 279.062 98.9167 279.938 101.125C280.812 103.333 282 105.25 283.5 106.875C285.042 108.5 286.833 109.792 288.875 110.75C290.958 111.667 293.167 112.125 295.5 112.125C297.833 112.125 300.021 111.688 302.062 110.812C304.146 109.938 305.958 108.708 307.5 107.125C309.042 105.542 310.25 103.625 311.125 101.375C312.042 99.125 312.5 96.6458 312.5 93.9375ZM403.812 93.9375C403.812 98.9375 402.917 103.604 401.125 107.938C399.333 112.229 396.896 115.958 393.812 119.125C390.729 122.25 387.104 124.729 382.938 126.562C378.812 128.354 374.375 129.25 369.625 129.25C364.917 129.25 360.479 128.354 356.312 126.562C352.188 124.729 348.562 122.25 345.438 119.125C342.354 115.958 339.917 112.229 338.125 107.938C336.333 103.604 335.438 98.9375 335.438 93.9375C335.438 88.8542 336.333 84.1458 338.125 79.8125C339.917 75.4792 342.354 71.75 345.438 68.625C348.562 65.4583 352.188 62.9792 356.312 61.1875C360.479 59.3958 364.917 58.5 369.625 58.5C374.375 58.5 378.812 59.3542 382.938 61.0625C387.104 62.7292 390.729 65.125 393.812 68.25C396.896 71.3333 399.333 75.0625 401.125 79.4375C402.917 83.7708 403.812 88.6042 403.812 93.9375ZM386.625 93.9375C386.625 91.1875 386.167 88.7083 385.25 86.5C384.375 84.25 383.167 82.3333 381.625 80.75C380.083 79.125 378.271 77.8958 376.188 77.0625C374.146 76.1875 371.958 75.75 369.625 75.75C367.292 75.75 365.083 76.1875 363 77.0625C360.958 77.8958 359.167 79.125 357.625 80.75C356.125 82.3333 354.938 84.25 354.062 86.5C353.188 88.7083 352.75 91.1875 352.75 93.9375C352.75 96.5208 353.188 98.9167 354.062 101.125C354.938 103.333 356.125 105.25 357.625 106.875C359.167 108.5 360.958 109.792 363 110.75C365.083 111.667 367.292 112.125 369.625 112.125C371.958 112.125 374.146 111.688 376.188 110.812C378.271 109.938 380.083 108.708 381.625 107.125C383.167 105.542 384.375 103.625 385.25 101.375C386.167 99.125 386.625 96.6458 386.625 93.9375Z" fill="#08D9D6"/>
<path d="M430.438 128H413.25V34.4375H430.438V93.4375L455.875 61.1875H475.5L453.312 89.0625L475.5 128H455.875L442.312 103.688L430.438 119.438V128Z" fill="#EEEEEE"/>
<path d="M327 107.938L327.923 108.323L327.924 108.32L327 107.938ZM319.688 119.125L320.399 119.827L320.404 119.823L319.688 119.125ZM308.812 126.562L309.211 127.48L309.215 127.478L308.812 126.562ZM282.188 126.562L281.781 127.476L281.792 127.481L282.188 126.562ZM271.312 119.125L270.596 119.823L270.605 119.832L271.312 119.125ZM264 107.938L263.076 108.32L263.077 108.323L264 107.938ZM264 79.8125L263.076 79.4304L264 79.8125ZM271.312 68.625L270.601 67.9226L270.601 67.9227L271.312 68.625ZM282.188 61.1875L281.792 60.2688L281.789 60.2703L282.188 61.1875ZM308.812 61.0625L308.43 61.9865L308.441 61.991L308.812 61.0625ZM319.688 68.25L318.976 68.9524L318.98 68.9571L319.688 68.25ZM327 79.4375L326.075 79.8165L326.076 79.8196L327 79.4375ZM311.125 86.5L310.193 86.8624L310.197 86.873L310.201 86.8834L311.125 86.5ZM307.5 80.75L306.774 81.4383L306.784 81.4476L307.5 80.75ZM302.062 77.0625L301.669 77.9816L301.68 77.9864L301.691 77.991L302.062 77.0625ZM288.875 77.0625L289.253 77.9884L289.262 77.9845L288.875 77.0625ZM283.5 80.75L282.775 80.0617L282.774 80.0623L283.5 80.75ZM279.938 86.5L280.867 86.8684L280.87 86.8624L279.938 86.5ZM283.5 106.875L282.765 107.553L282.775 107.563L283.5 106.875ZM288.875 110.75L288.45 111.655L288.461 111.66L288.472 111.665L288.875 110.75ZM302.062 110.812L301.675 109.89L301.669 109.893L302.062 110.812ZM311.125 101.375L310.199 100.998L310.196 101.005L310.193 101.013L311.125 101.375ZM328.688 93.9375C328.688 98.8152 327.814 103.351 326.076 107.555L327.924 108.32C329.769 103.857 330.688 99.0598 330.688 93.9375H328.688ZM326.077 107.552C324.331 111.734 321.962 115.356 318.971 118.427L320.404 119.823C323.58 116.561 326.085 112.724 327.923 108.323L326.077 107.552ZM318.976 118.423C315.984 121.454 312.465 123.863 308.41 125.647L309.215 127.478C313.493 125.596 317.224 123.046 320.399 119.827L318.976 118.423ZM308.414 125.645C304.422 127.379 300.121 128.25 295.5 128.25V130.25C300.379 130.25 304.953 129.329 309.211 127.48L308.414 125.645ZM295.5 128.25C290.922 128.25 286.62 127.38 282.583 125.644L281.792 127.481C286.089 129.329 290.661 130.25 295.5 130.25V128.25ZM282.594 125.649C278.578 123.864 275.056 121.454 272.02 118.418L270.605 119.832C273.819 123.046 277.547 125.594 281.781 127.476L282.594 125.649ZM272.029 118.427C269.038 115.356 266.669 111.734 264.923 107.552L263.077 108.323C264.915 112.724 267.42 116.561 270.596 119.823L272.029 118.427ZM264.924 107.555C263.186 103.351 262.312 98.8152 262.312 93.9375H260.312C260.312 99.0598 261.231 103.857 263.076 108.32L264.924 107.555ZM262.312 93.9375C262.312 88.9742 263.187 84.3969 264.924 80.1946L263.076 79.4304C261.23 83.8948 260.312 88.7342 260.312 93.9375H262.312ZM264.924 80.1946C266.67 75.9725 269.038 72.3542 272.024 69.3273L270.601 67.9227C267.42 71.1458 264.914 74.9858 263.076 79.4304L264.924 80.1946ZM272.024 69.3274C275.059 66.2527 278.577 63.846 282.586 62.1047L281.789 60.2703C277.548 62.1123 273.816 64.6639 270.601 67.9226L272.024 69.3274ZM282.583 62.1062C286.62 60.3702 290.922 59.5 295.5 59.5V57.5C290.661 57.5 286.089 58.4215 281.792 60.2688L282.583 62.1062ZM295.5 59.5C300.127 59.5 304.434 60.3315 308.43 61.9864L309.195 60.1386C304.941 58.3769 300.373 57.5 295.5 57.5V59.5ZM308.441 61.991C312.483 63.6077 315.991 65.9276 318.976 68.9523L320.399 67.5477C317.217 64.3224 313.475 61.8507 309.184 60.134L308.441 61.991ZM318.98 68.9571C321.962 71.939 324.329 75.5538 326.075 79.8165L327.925 79.0585C326.088 74.5712 323.579 70.7277 320.395 67.5429L318.98 68.9571ZM326.076 79.8196C327.811 84.0162 328.688 88.7174 328.688 93.9375H330.688C330.688 88.491 329.772 83.5254 327.924 79.0554L326.076 79.8196ZM313.5 93.9375C313.5 91.0755 313.023 88.4633 312.049 86.1166L310.201 86.8834C311.061 88.9533 311.5 91.2995 311.5 93.9375H313.5ZM312.057 86.1376C311.138 83.7741 309.86 81.7404 308.216 80.0524L306.784 81.4476C308.223 82.9263 309.362 84.7259 310.193 86.8624L312.057 86.1376ZM308.225 80.0617C306.584 78.3319 304.651 77.0208 302.434 76.134L301.691 77.991C303.641 78.7708 305.332 79.9181 306.775 81.4383L308.225 80.0617ZM302.456 76.1434C300.284 75.2123 297.962 74.75 295.5 74.75V76.75C297.705 76.75 299.758 77.1627 301.669 77.9816L302.456 76.1434ZM295.5 74.75C293.038 74.75 290.698 75.2123 288.488 76.1405L289.262 77.9845C291.219 77.1627 293.295 76.75 295.5 76.75V74.75ZM288.497 76.1367C286.322 77.0245 284.412 78.3354 282.775 80.0617L284.225 81.4383C285.671 79.9146 287.345 78.7672 289.253 77.9883L288.497 76.1367ZM282.774 80.0623C281.176 81.7492 279.922 83.7797 279.005 86.1376L280.87 86.8624C281.703 84.7203 282.824 82.9174 284.226 81.4377L282.774 80.0623ZM279.008 86.1316C278.08 88.4742 277.625 91.081 277.625 93.9375H279.625C279.625 91.294 280.045 88.9425 280.867 86.8684L279.008 86.1316ZM277.625 93.9375C277.625 96.6359 278.082 99.1579 279.008 101.493L280.867 100.757C280.043 98.6754 279.625 96.4058 279.625 93.9375H277.625ZM279.008 101.493C279.925 103.808 281.176 105.831 282.765 107.553L284.235 106.197C282.824 104.669 281.7 102.859 280.867 100.757L279.008 101.493ZM282.775 107.563C284.403 109.279 286.296 110.644 288.45 111.655L289.3 109.845C287.37 108.939 285.681 107.721 284.225 106.187L282.775 107.563ZM288.472 111.665C290.686 112.639 293.032 113.125 295.5 113.125V111.125C293.302 111.125 291.231 110.694 289.278 109.835L288.472 111.665ZM295.5 113.125C297.962 113.125 300.284 112.663 302.456 111.732L301.669 109.893C299.758 110.712 297.705 111.125 295.5 111.125V113.125ZM302.45 111.734C304.654 110.809 306.579 109.504 308.216 107.823L306.784 106.427C305.338 107.912 303.638 109.066 301.675 109.891L302.45 111.734ZM308.216 107.823C309.86 106.135 311.138 104.101 312.057 101.737L310.193 101.013C309.362 103.149 308.223 104.949 306.784 106.427L308.216 107.823ZM312.051 101.752C313.022 99.3695 313.5 96.7604 313.5 93.9375H311.5C311.5 96.5313 311.061 98.8805 310.199 100.998L312.051 101.752ZM401.125 107.938L402.048 108.323L402.049 108.32L401.125 107.938ZM393.812 119.125L394.524 119.827L394.529 119.823L393.812 119.125ZM382.938 126.562L383.336 127.48L383.34 127.478L382.938 126.562ZM356.312 126.562L355.906 127.476L355.917 127.481L356.312 126.562ZM345.438 119.125L344.721 119.823L344.73 119.832L345.438 119.125ZM338.125 107.938L337.201 108.32L337.202 108.323L338.125 107.938ZM338.125 79.8125L337.201 79.4304L338.125 79.8125ZM345.438 68.625L344.726 67.9226L344.726 67.9227L345.438 68.625ZM356.312 61.1875L355.917 60.2688L355.914 60.2703L356.312 61.1875ZM382.938 61.0625L382.555 61.9865L382.566 61.991L382.938 61.0625ZM393.812 68.25L393.101 68.9524L393.105 68.9571L393.812 68.25ZM401.125 79.4375L400.2 79.8165L400.201 79.8196L401.125 79.4375ZM385.25 86.5L384.318 86.8624L384.322 86.873L384.326 86.8834L385.25 86.5ZM381.625 80.75L380.899 81.4383L380.909 81.4476L381.625 80.75ZM376.188 77.0625L375.794 77.9816L375.805 77.9864L375.816 77.991L376.188 77.0625ZM363 77.0625L363.378 77.9884L363.387 77.9845L363 77.0625ZM357.625 80.75L356.9 80.0617L356.899 80.0623L357.625 80.75ZM354.062 86.5L354.992 86.8684L354.995 86.8624L354.062 86.5ZM357.625 106.875L356.89 107.553L356.9 107.563L357.625 106.875ZM363 110.75L362.575 111.655L362.586 111.66L362.597 111.665L363 110.75ZM376.188 110.812L375.8 109.89L375.794 109.893L376.188 110.812ZM385.25 101.375L384.324 100.998L384.321 101.005L384.318 101.013L385.25 101.375ZM402.812 93.9375C402.812 98.8152 401.939 103.351 400.201 107.555L402.049 108.32C403.894 103.857 404.812 99.0598 404.812 93.9375H402.812ZM400.202 107.552C398.456 111.734 396.087 115.356 393.096 118.427L394.529 119.823C397.705 116.561 400.21 112.724 402.048 108.323L400.202 107.552ZM393.101 118.423C390.109 121.454 386.59 123.863 382.535 125.647L383.34 127.478C387.618 125.596 391.349 123.046 394.524 119.827L393.101 118.423ZM382.539 125.645C378.547 127.379 374.246 128.25 369.625 128.25V130.25C374.504 130.25 379.078 129.329 383.336 127.48L382.539 125.645ZM369.625 128.25C365.047 128.25 360.745 127.38 356.708 125.644L355.917 127.481C360.214 129.329 364.786 130.25 369.625 130.25V128.25ZM356.719 125.649C352.703 123.864 349.181 121.454 346.145 118.418L344.73 119.832C347.944 123.046 351.672 125.594 355.906 127.476L356.719 125.649ZM346.154 118.427C343.163 115.356 340.794 111.734 339.048 107.552L337.202 108.323C339.04 112.724 341.545 116.561 344.721 119.823L346.154 118.427ZM339.049 107.555C337.311 103.351 336.438 98.8152 336.438 93.9375H334.438C334.438 99.0598 335.356 103.857 337.201 108.32L339.049 107.555ZM336.438 93.9375C336.438 88.9742 337.312 84.3969 339.049 80.1946L337.201 79.4304C335.355 83.8948 334.438 88.7342 334.438 93.9375H336.438ZM339.049 80.1946C340.795 75.9725 343.163 72.3542 346.149 69.3273L344.726 67.9227C341.545 71.1458 339.039 74.9858 337.201 79.4304L339.049 80.1946ZM346.149 69.3274C349.184 66.2527 352.702 63.846 356.711 62.1047L355.914 60.2703C351.673 62.1123 347.941 64.6639 344.726 67.9226L346.149 69.3274ZM356.708 62.1062C360.745 60.3702 365.047 59.5 369.625 59.5V57.5C364.786 57.5 360.214 58.4215 355.917 60.2688L356.708 62.1062ZM369.625 59.5C374.252 59.5 378.559 60.3315 382.555 61.9864L383.32 60.1386C379.066 58.3769 374.498 57.5 369.625 57.5V59.5ZM382.566 61.991C386.608 63.6077 390.116 65.9276 393.101 68.9523L394.524 67.5477C391.342 64.3224 387.6 61.8507 383.309 60.134L382.566 61.991ZM393.105 68.9571C396.087 71.939 398.454 75.5538 400.2 79.8165L402.05 79.0585C400.213 74.5712 397.704 70.7277 394.52 67.5429L393.105 68.9571ZM400.201 79.8196C401.936 84.0162 402.812 88.7174 402.812 93.9375H404.812C404.812 88.491 403.897 83.5254 402.049 79.0554L400.201 79.8196ZM387.625 93.9375C387.625 91.0755 387.148 88.4633 386.174 86.1166L384.326 86.8834C385.186 88.9533 385.625 91.2995 385.625 93.9375H387.625ZM386.182 86.1376C385.263 83.7741 383.985 81.7404 382.341 80.0524L380.909 81.4476C382.348 82.9263 383.487 84.7259 384.318 86.8624L386.182 86.1376ZM382.35 80.0617C380.709 78.3319 378.776 77.0208 376.559 76.134L375.816 77.991C377.766 78.7708 379.457 79.9181 380.9 81.4383L382.35 80.0617ZM376.581 76.1434C374.409 75.2123 372.087 74.75 369.625 74.75V76.75C371.83 76.75 373.883 77.1627 375.794 77.9816L376.581 76.1434ZM369.625 74.75C367.163 74.75 364.823 75.2123 362.613 76.1405L363.387 77.9845C365.344 77.1627 367.42 76.75 369.625 76.75V74.75ZM362.622 76.1367C360.447 77.0245 358.537 78.3354 356.9 80.0617L358.35 81.4383C359.796 79.9146 361.47 78.7672 363.378 77.9883L362.622 76.1367ZM356.899 80.0623C355.301 81.7492 354.047 83.7797 353.13 86.1376L354.995 86.8624C355.828 84.7203 356.949 82.9174 358.351 81.4377L356.899 80.0623ZM353.133 86.1316C352.205 88.4742 351.75 91.081 351.75 93.9375H353.75C353.75 91.294 354.17 88.9425 354.992 86.8684L353.133 86.1316ZM351.75 93.9375C351.75 96.6359 352.207 99.1579 353.133 101.493L354.992 100.757C354.168 98.6754 353.75 96.4058 353.75 93.9375H351.75ZM353.133 101.493C354.05 103.808 355.301 105.831 356.89 107.553L358.36 106.197C356.949 104.669 355.825 102.859 354.992 100.757L353.133 101.493ZM356.9 107.563C358.528 109.279 360.421 110.644 362.575 111.655L363.425 109.845C361.495 108.939 359.806 107.721 358.35 106.187L356.9 107.563ZM362.597 111.665C364.811 112.639 367.157 113.125 369.625 113.125V111.125C367.427 111.125 365.356 110.694 363.403 109.835L362.597 111.665ZM369.625 113.125C372.087 113.125 374.409 112.663 376.581 111.732L375.794 109.893C373.883 110.712 371.83 111.125 369.625 111.125V113.125ZM376.575 111.734C378.779 110.809 380.704 109.504 382.341 107.823L380.909 106.427C379.463 107.912 377.763 109.066 375.8 109.891L376.575 111.734ZM382.341 107.823C383.985 106.135 385.263 104.101 386.182 101.737L384.318 101.013C383.487 103.149 382.348 104.949 380.909 106.427L382.341 107.823ZM386.176 101.752C387.147 99.3695 387.625 96.7604 387.625 93.9375H385.625C385.625 96.5313 385.186 98.8805 384.324 100.998L386.176 101.752ZM430.438 128V129H431.438V128H430.438ZM413.25 128H412.25V129H413.25V128ZM413.25 34.4375V33.4375H412.25V34.4375H413.25ZM430.438 34.4375H431.438V33.4375H430.438V34.4375ZM430.438 93.4375H429.438V96.32L431.223 94.0568L430.438 93.4375ZM455.875 61.1875V60.1875H455.39L455.09 60.5682L455.875 61.1875ZM475.5 61.1875L476.282 61.8103L477.574 60.1875H475.5V61.1875ZM453.312 89.0625L452.53 88.4397L452.108 88.9694L452.444 89.5576L453.312 89.0625ZM475.5 128V129H477.221L476.369 127.505L475.5 128ZM455.875 128L455.002 128.487L455.288 129H455.875V128ZM442.312 103.688L443.186 103.2L442.438 101.86L441.514 103.085L442.312 103.688ZM430.438 119.438L429.639 118.835L429.438 119.103V119.438H430.438ZM430.438 127H413.25V129H430.438V127ZM414.25 128V34.4375H412.25V128H414.25ZM413.25 35.4375H430.438V33.4375H413.25V35.4375ZM429.438 34.4375V93.4375H431.438V34.4375H429.438ZM431.223 94.0568L456.66 61.8068L455.09 60.5682L429.652 92.8182L431.223 94.0568ZM455.875 62.1875H475.5V60.1875H455.875V62.1875ZM474.718 60.5647L452.53 88.4397L454.095 89.6853L476.282 61.8103L474.718 60.5647ZM452.444 89.5576L474.631 128.495L476.369 127.505L454.181 88.5674L452.444 89.5576ZM475.5 127H455.875V129H475.5V127ZM456.748 127.513L443.186 103.2L441.439 104.175L455.002 128.487L456.748 127.513ZM441.514 103.085L429.639 118.835L431.236 120.04L443.111 104.29L441.514 103.085ZM429.438 119.438V128H431.438V119.438H429.438Z" fill="#00ADB5" fill-opacity="0.8"/>
<rect x="316" y="87.5" width="32" height="13" fill="#71C9CE" stroke="#00ADB5"/>
<path d="M296.5 96.7001C302.575 96.7001 307.5 90.6249 307.5 96.7001C307.5 102.775 302.575 107.7 296.5 107.7C290.425 107.7 285.5 102.775 285.5 96.7001C285.5 90.6249 290.425 96.7001 296.5 96.7001Z" fill="#D9D9D9"/>
<path d="M369.5 96.7001C375.575 96.7001 380.5 90.6249 380.5 96.7001C380.5 102.775 375.575 107.7 369.5 107.7C363.425 107.7 358.5 102.775 358.5 96.7001C358.5 90.6249 363.425 96.7001 369.5 96.7001Z" fill="#D9D9D9"/>
</svg>
